<?xml version="1.0" encoding="utf-8" standalone="no"?>
<!DOCTYPE svg PUBLIC "-//W3C//DTD SVG 1.1//EN"
  "http://www.w3.org/Graphics/SVG/1.1/DTD/svg11.dtd">
<svg height="288pt" version="1.1" viewBox="0 0 432 288" width="432pt" xmlns="http://www.w3.org/2000/svg" xmlns:xlink="http://www.w3.org/1999/xlink">
 <metadata>
  <rdf:RDF xmlns:cc="http://creativecommons.org/ns#" xmlns:dc="http://purl.org/dc/elements/1.1/" xmlns:rdf="http://www.w3.org/1999/02/22-rdf-syntax-ns#">
   <cc:Work>
    <dc:type rdf:resource="http://purl.org/dc/dcmitype/StillImage"/>
    <dc:date>2021-09-19T16:15:34.799362</dc:date>
    <dc:format>image/svg+xml</dc:format>
    <dc:creator>
     <cc:Agent>
      <dc:title>Matplotlib v3.4.3, https://matplotlib.org/</dc:title>
     </cc:Agent>
    </dc:creator>
   </cc:Work>
  </rdf:RDF>
 </metadata>
 <defs>
  <style type="text/css">*{stroke-linecap:butt;stroke-linejoin:round;}</style>
 </defs>
 <g id="figure_1">
  <g id="patch_1">
   <path d="M 0 288 
L 432 288 
L 432 0 
L 0 0 
z
" style="fill:none;"/>
  </g>
  <g id="axes_1">
   <g id="patch_2">
    <path d="M 308.376 143.28 
C 308.376 134.705568 307.108049 126.178076 304.613342 117.974581 
C 302.118636 109.771087 298.424488 101.981408 293.650922 94.858632 
C 288.877355 87.735855 283.076634 81.357966 276.437225 75.932183 
C 269.797816 70.5064 262.392411 66.092127 254.461612 62.832785 
C 246.530813 59.573443 238.161452 57.504717 229.625451 56.69382 
C 221.089449 55.882923 212.480264 56.338734 204.077609 58.046442 
C 195.674954 59.754151 187.570826 62.695061 180.028531 66.773621 
C 172.486235 70.852181 165.588348 76.023737 159.558984 82.120264 
C 153.52962 88.216791 148.434791 95.171542 144.44003 102.758554 
C 140.445268 110.345567 137.594311 118.481775 135.979786 126.902831 
C 134.365261 135.323887 134.004846 143.937593 134.910249 152.464088 
C 135.815652 160.990584 137.976961 169.336515 141.323955 177.230723 
C 144.670949 185.12493 149.166983 192.480983 154.66598 199.059881 
C 160.164977 205.63878 166.606731 211.368495 173.781949 216.062867 
C 180.957167 220.75724 188.787289 224.364872 197.017915 226.768553 
C 205.24854 229.172234 213.789555 230.345645 222.363461 230.250664 
L 221.4 143.28 
L 308.376 143.28 
z
" style="fill:#1f77b4;"/>
   </g>
   <g id="patch_3">
    <path d="M 222.363461 230.250664 
C 232.796259 230.135089 243.123644 228.143211 252.851061 224.370415 
C 262.578478 220.597619 271.548135 215.105105 279.330497 208.155898 
L 221.4 143.28 
L 222.363461 230.250664 
z
" style="fill:#ff7f0e;"/>
   </g>
   <g id="patch_4">
    <path d="M 279.330497 208.155898 
C 286.919716 201.379155 293.261284 193.322991 298.066207 184.354534 
C 302.871129 175.386077 306.065291 165.643665 307.503131 155.571272 
L 221.4 143.28 
L 279.330497 208.155898 
z
" style="fill:#2ca02c;"/>
   </g>
   <g id="patch_5">
    <path d="M 307.503131 155.571272 
C 307.648369 154.553846 307.775563 153.533926 307.884651 152.511992 
C 307.99374 151.490058 308.084706 150.466271 308.157508 149.441113 
L 221.4 143.28 
L 307.503131 155.571272 
z
" style="fill:#d62728;"/>
   </g>
   <g id="patch_6">
    <path d="M 308.157508 149.441113 
C 308.175708 149.18483 308.192773 148.928467 308.208701 148.672033 
C 308.224629 148.415598 308.239421 148.159095 308.253076 147.902529 
L 221.4 143.28 
L 308.157508 149.441113 
z
" style="fill:#9467bd;"/>
   </g>
   <g id="patch_7">
    <path d="M 308.253076 147.902529 
C 308.266731 147.645964 308.279249 147.389339 308.29063 147.132662 
C 308.302011 146.875986 308.312254 146.61926 308.32136 146.362493 
L 221.4 143.28 
L 308.253076 147.902529 
z
" style="fill:#8c564b;"/>
   </g>
   <g id="patch_8">
    <path d="M 308.32136 146.362493 
C 308.330466 146.105726 308.338434 145.84892 308.345264 145.592082 
C 308.352093 145.335244 308.357785 145.078377 308.362339 144.821489 
L 221.4 143.28 
L 308.32136 146.362493 
z
" style="fill:#e377c2;"/>
   </g>
   <g id="patch_9">
    <path d="M 308.362339 144.821489 
C 308.364616 144.693045 308.366608 144.564596 308.368316 144.436143 
C 308.370023 144.30769 308.371446 144.179234 308.372585 144.050775 
L 221.4 143.28 
L 308.362339 144.821489 
z
" style="fill:#7f7f7f;"/>
   </g>
   <g id="patch_10">
    <path d="M 308.372585 144.050775 
C 308.373723 143.922315 308.374577 143.793854 308.375146 143.665391 
C 308.375715 143.536928 308.376 143.408464 308.376 143.28 
L 221.4 143.28 
L 308.372585 144.050775 
z
" style="fill:#bcbd22;"/>
   </g>
   <g id="matplotlib.axis_1"/>
   <g id="matplotlib.axis_2"/>
   <g id="legend_1">
    <g id="patch_11">
     <path d="M 68.471875 283 
L 209 283 
Q 211 283 211 281 
L 211 149.896875 
Q 211 147.896875 209 147.896875 
L 68.471875 147.896875 
Q 66.471875 147.896875 66.471875 149.896875 
L 66.471875 281 
Q 66.471875 283 68.471875 283 
z
" style="fill:#ffffff;opacity:0.8;stroke:#cccccc;stroke-linejoin:miter;"/>
    </g>
    <g id="patch_12">
     <path d="M 70.471875 159.495313 
L 90.471875 159.495313 
L 90.471875 152.495313 
L 70.471875 152.495313 
z
" style="fill:#1f77b4;"/>
    </g>
    <g id="text_1">
     <!-- 192.168.0.36 - 75.2% -->
     <g transform="translate(98.471875 159.495313)scale(0.1 -0.1)">
      <defs>
       <path d="M 794 531 
L 1825 531 
L 1825 4091 
L 703 3866 
L 703 4441 
L 1819 4666 
L 2450 4666 
L 2450 531 
L 3481 531 
L 3481 0 
L 794 0 
L 794 531 
z
" id="DejaVuSans-31" transform="scale(0.015625)"/>
       <path d="M 703 97 
L 703 672 
Q 941 559 1184 500 
Q 1428 441 1663 441 
Q 2288 441 2617 861 
Q 2947 1281 2994 2138 
Q 2813 1869 2534 1725 
Q 2256 1581 1919 1581 
Q 1219 1581 811 2004 
Q 403 2428 403 3163 
Q 403 3881 828 4315 
Q 1253 4750 1959 4750 
Q 2769 4750 3195 4129 
Q 3622 3509 3622 2328 
Q 3622 1225 3098 567 
Q 2575 -91 1691 -91 
Q 1453 -91 1209 -44 
Q 966 3 703 97 
z
M 1959 2075 
Q 2384 2075 2632 2365 
Q 2881 2656 2881 3163 
Q 2881 3666 2632 3958 
Q 2384 4250 1959 4250 
Q 1534 4250 1286 3958 
Q 1038 3666 1038 3163 
Q 1038 2656 1286 2365 
Q 1534 2075 1959 2075 
z
" id="DejaVuSans-39" transform="scale(0.015625)"/>
       <path d="M 1228 531 
L 3431 531 
L 3431 0 
L 469 0 
L 469 531 
Q 828 903 1448 1529 
Q 2069 2156 2228 2338 
Q 2531 2678 2651 2914 
Q 2772 3150 2772 3378 
Q 2772 3750 2511 3984 
Q 2250 4219 1831 4219 
Q 1534 4219 1204 4116 
Q 875 4013 500 3803 
L 500 4441 
Q 881 4594 1212 4672 
Q 1544 4750 1819 4750 
Q 2544 4750 2975 4387 
Q 3406 4025 3406 3419 
Q 3406 3131 3298 2873 
Q 3191 2616 2906 2266 
Q 2828 2175 2409 1742 
Q 1991 1309 1228 531 
z
" id="DejaVuSans-32" transform="scale(0.015625)"/>
       <path d="M 684 794 
L 1344 794 
L 1344 0 
L 684 0 
L 684 794 
z
" id="DejaVuSans-2e" transform="scale(0.015625)"/>
       <path d="M 2113 2584 
Q 1688 2584 1439 2293 
Q 1191 2003 1191 1497 
Q 1191 994 1439 701 
Q 1688 409 2113 409 
Q 2538 409 2786 701 
Q 3034 994 3034 1497 
Q 3034 2003 2786 2293 
Q 2538 2584 2113 2584 
z
M 3366 4563 
L 3366 3988 
Q 3128 4100 2886 4159 
Q 2644 4219 2406 4219 
Q 1781 4219 1451 3797 
Q 1122 3375 1075 2522 
Q 1259 2794 1537 2939 
Q 1816 3084 2150 3084 
Q 2853 3084 3261 2657 
Q 3669 2231 3669 1497 
Q 3669 778 3244 343 
Q 2819 -91 2113 -91 
Q 1303 -91 875 529 
Q 447 1150 447 2328 
Q 447 3434 972 4092 
Q 1497 4750 2381 4750 
Q 2619 4750 2861 4703 
Q 3103 4656 3366 4563 
z
" id="DejaVuSans-36" transform="scale(0.015625)"/>
       <path d="M 2034 2216 
Q 1584 2216 1326 1975 
Q 1069 1734 1069 1313 
Q 1069 891 1326 650 
Q 1584 409 2034 409 
Q 2484 409 2743 651 
Q 3003 894 3003 1313 
Q 3003 1734 2745 1975 
Q 2488 2216 2034 2216 
z
M 1403 2484 
Q 997 2584 770 2862 
Q 544 3141 544 3541 
Q 544 4100 942 4425 
Q 1341 4750 2034 4750 
Q 2731 4750 3128 4425 
Q 3525 4100 3525 3541 
Q 3525 3141 3298 2862 
Q 3072 2584 2669 2484 
Q 3125 2378 3379 2068 
Q 3634 1759 3634 1313 
Q 3634 634 3220 271 
Q 2806 -91 2034 -91 
Q 1263 -91 848 271 
Q 434 634 434 1313 
Q 434 1759 690 2068 
Q 947 2378 1403 2484 
z
M 1172 3481 
Q 1172 3119 1398 2916 
Q 1625 2713 2034 2713 
Q 2441 2713 2670 2916 
Q 2900 3119 2900 3481 
Q 2900 3844 2670 4047 
Q 2441 4250 2034 4250 
Q 1625 4250 1398 4047 
Q 1172 3844 1172 3481 
z
" id="DejaVuSans-38" transform="scale(0.015625)"/>
       <path d="M 2034 4250 
Q 1547 4250 1301 3770 
Q 1056 3291 1056 2328 
Q 1056 1369 1301 889 
Q 1547 409 2034 409 
Q 2525 409 2770 889 
Q 3016 1369 3016 2328 
Q 3016 3291 2770 3770 
Q 2525 4250 2034 4250 
z
M 2034 4750 
Q 2819 4750 3233 4129 
Q 3647 3509 3647 2328 
Q 3647 1150 3233 529 
Q 2819 -91 2034 -91 
Q 1250 -91 836 529 
Q 422 1150 422 2328 
Q 422 3509 836 4129 
Q 1250 4750 2034 4750 
z
" id="DejaVuSans-30" transform="scale(0.015625)"/>
       <path d="M 2597 2516 
Q 3050 2419 3304 2112 
Q 3559 1806 3559 1356 
Q 3559 666 3084 287 
Q 2609 -91 1734 -91 
Q 1441 -91 1130 -33 
Q 819 25 488 141 
L 488 750 
Q 750 597 1062 519 
Q 1375 441 1716 441 
Q 2309 441 2620 675 
Q 2931 909 2931 1356 
Q 2931 1769 2642 2001 
Q 2353 2234 1838 2234 
L 1294 2234 
L 1294 2753 
L 1863 2753 
Q 2328 2753 2575 2939 
Q 2822 3125 2822 3475 
Q 2822 3834 2567 4026 
Q 2313 4219 1838 4219 
Q 1578 4219 1281 4162 
Q 984 4106 628 3988 
L 628 4550 
Q 988 4650 1302 4700 
Q 1616 4750 1894 4750 
Q 2613 4750 3031 4423 
Q 3450 4097 3450 3541 
Q 3450 3153 3228 2886 
Q 3006 2619 2597 2516 
z
" id="DejaVuSans-33" transform="scale(0.015625)"/>
       <path id="DejaVuSans-20" transform="scale(0.015625)"/>
       <path d="M 313 2009 
L 1997 2009 
L 1997 1497 
L 313 1497 
L 313 2009 
z
" id="DejaVuSans-2d" transform="scale(0.015625)"/>
       <path d="M 525 4666 
L 3525 4666 
L 3525 4397 
L 1831 0 
L 1172 0 
L 2766 4134 
L 525 4134 
L 525 4666 
z
" id="DejaVuSans-37" transform="scale(0.015625)"/>
       <path d="M 691 4666 
L 3169 4666 
L 3169 4134 
L 1269 4134 
L 1269 2991 
Q 1406 3038 1543 3061 
Q 1681 3084 1819 3084 
Q 2600 3084 3056 2656 
Q 3513 2228 3513 1497 
Q 3513 744 3044 326 
Q 2575 -91 1722 -91 
Q 1428 -91 1123 -41 
Q 819 9 494 109 
L 494 744 
Q 775 591 1075 516 
Q 1375 441 1709 441 
Q 2250 441 2565 725 
Q 2881 1009 2881 1497 
Q 2881 1984 2565 2268 
Q 2250 2553 1709 2553 
Q 1456 2553 1204 2497 
Q 953 2441 691 2322 
L 691 4666 
z
" id="DejaVuSans-35" transform="scale(0.015625)"/>
       <path d="M 4653 2053 
Q 4381 2053 4226 1822 
Q 4072 1591 4072 1178 
Q 4072 772 4226 539 
Q 4381 306 4653 306 
Q 4919 306 5073 539 
Q 5228 772 5228 1178 
Q 5228 1588 5073 1820 
Q 4919 2053 4653 2053 
z
M 4653 2450 
Q 5147 2450 5437 2106 
Q 5728 1763 5728 1178 
Q 5728 594 5436 251 
Q 5144 -91 4653 -91 
Q 4153 -91 3862 251 
Q 3572 594 3572 1178 
Q 3572 1766 3864 2108 
Q 4156 2450 4653 2450 
z
M 1428 4353 
Q 1159 4353 1004 4120 
Q 850 3888 850 3481 
Q 850 3069 1003 2837 
Q 1156 2606 1428 2606 
Q 1700 2606 1854 2837 
Q 2009 3069 2009 3481 
Q 2009 3884 1853 4118 
Q 1697 4353 1428 4353 
z
M 4250 4750 
L 4750 4750 
L 1831 -91 
L 1331 -91 
L 4250 4750 
z
M 1428 4750 
Q 1922 4750 2215 4408 
Q 2509 4066 2509 3481 
Q 2509 2891 2217 2550 
Q 1925 2209 1428 2209 
Q 931 2209 642 2551 
Q 353 2894 353 3481 
Q 353 4063 643 4406 
Q 934 4750 1428 4750 
z
" id="DejaVuSans-25" transform="scale(0.015625)"/>
      </defs>
      <use xlink:href="#DejaVuSans-31"/>
      <use x="63.623047" xlink:href="#DejaVuSans-39"/>
      <use x="127.246094" xlink:href="#DejaVuSans-32"/>
      <use x="190.869141" xlink:href="#DejaVuSans-2e"/>
      <use x="222.65625" xlink:href="#DejaVuSans-31"/>
      <use x="286.279297" xlink:href="#DejaVuSans-36"/>
      <use x="349.902344" xlink:href="#DejaVuSans-38"/>
      <use x="413.525391" xlink:href="#DejaVuSans-2e"/>
      <use x="445.3125" xlink:href="#DejaVuSans-30"/>
      <use x="508.935547" xlink:href="#DejaVuSans-2e"/>
      <use x="540.722656" xlink:href="#DejaVuSans-33"/>
      <use x="604.345703" xlink:href="#DejaVuSans-36"/>
      <use x="667.96875" xlink:href="#DejaVuSans-20"/>
      <use x="699.755859" xlink:href="#DejaVuSans-2d"/>
      <use x="735.839844" xlink:href="#DejaVuSans-20"/>
      <use x="767.626953" xlink:href="#DejaVuSans-37"/>
      <use x="831.25" xlink:href="#DejaVuSans-35"/>
      <use x="894.873047" xlink:href="#DejaVuSans-2e"/>
      <use x="926.660156" xlink:href="#DejaVuSans-32"/>
      <use x="990.283203" xlink:href="#DejaVuSans-25"/>
     </g>
    </g>
    <g id="patch_13">
     <path d="M 70.471875 174.173438 
L 90.471875 174.173438 
L 90.471875 167.173438 
L 70.471875 167.173438 
z
" style="fill:#ff7f0e;"/>
    </g>
    <g id="text_2">
     <!-- 192.168.0.78 - 11.4% -->
     <g transform="translate(98.471875 174.173438)scale(0.1 -0.1)">
      <defs>
       <path d="M 2419 4116 
L 825 1625 
L 2419 1625 
L 2419 4116 
z
M 2253 4666 
L 3047 4666 
L 3047 1625 
L 3713 1625 
L 3713 1100 
L 3047 1100 
L 3047 0 
L 2419 0 
L 2419 1100 
L 313 1100 
L 313 1709 
L 2253 4666 
z
" id="DejaVuSans-34" transform="scale(0.015625)"/>
      </defs>
      <use xlink:href="#DejaVuSans-31"/>
      <use x="63.623047" xlink:href="#DejaVuSans-39"/>
      <use x="127.246094" xlink:href="#DejaVuSans-32"/>
      <use x="190.869141" xlink:href="#DejaVuSans-2e"/>
      <use x="222.65625" xlink:href="#DejaVuSans-31"/>
      <use x="286.279297" xlink:href="#DejaVuSans-36"/>
      <use x="349.902344" xlink:href="#DejaVuSans-38"/>
      <use x="413.525391" xlink:href="#DejaVuSans-2e"/>
      <use x="445.3125" xlink:href="#DejaVuSans-30"/>
      <use x="508.935547" xlink:href="#DejaVuSans-2e"/>
      <use x="540.722656" xlink:href="#DejaVuSans-37"/>
      <use x="604.345703" xlink:href="#DejaVuSans-38"/>
      <use x="667.96875" xlink:href="#DejaVuSans-20"/>
      <use x="699.755859" xlink:href="#DejaVuSans-2d"/>
      <use x="735.839844" xlink:href="#DejaVuSans-20"/>
      <use x="767.626953" xlink:href="#DejaVuSans-31"/>
      <use x="831.25" xlink:href="#DejaVuSans-31"/>
      <use x="894.873047" xlink:href="#DejaVuSans-2e"/>
      <use x="926.660156" xlink:href="#DejaVuSans-34"/>
      <use x="990.283203" xlink:href="#DejaVuSans-25"/>
     </g>
    </g>
    <g id="patch_14">
     <path d="M 70.471875 188.851562 
L 90.471875 188.851562 
L 90.471875 181.851562 
L 70.471875 181.851562 
z
" style="fill:#2ca02c;"/>
    </g>
    <g id="text_3">
     <!-- 192.168.0.1 - 11.1% -->
     <g transform="translate(98.471875 188.851562)scale(0.1 -0.1)">
      <use xlink:href="#DejaVuSans-31"/>
      <use x="63.623047" xlink:href="#DejaVuSans-39"/>
      <use x="127.246094" xlink:href="#DejaVuSans-32"/>
      <use x="190.869141" xlink:href="#DejaVuSans-2e"/>
      <use x="222.65625" xlink:href="#DejaVuSans-31"/>
      <use x="286.279297" xlink:href="#DejaVuSans-36"/>
      <use x="349.902344" xlink:href="#DejaVuSans-38"/>
      <use x="413.525391" xlink:href="#DejaVuSans-2e"/>
      <use x="445.3125" xlink:href="#DejaVuSans-30"/>
      <use x="508.935547" xlink:href="#DejaVuSans-2e"/>
      <use x="540.722656" xlink:href="#DejaVuSans-31"/>
      <use x="604.345703" xlink:href="#DejaVuSans-20"/>
      <use x="636.132812" xlink:href="#DejaVuSans-2d"/>
      <use x="672.216797" xlink:href="#DejaVuSans-20"/>
      <use x="704.003906" xlink:href="#DejaVuSans-31"/>
      <use x="767.626953" xlink:href="#DejaVuSans-31"/>
      <use x="831.25" xlink:href="#DejaVuSans-2e"/>
      <use x="863.037109" xlink:href="#DejaVuSans-31"/>
      <use x="926.660156" xlink:href="#DejaVuSans-25"/>
     </g>
    </g>
    <g id="patch_15">
     <path d="M 70.471875 203.529688 
L 90.471875 203.529688 
L 90.471875 196.529688 
L 70.471875 196.529688 
z
" style="fill:#d62728;"/>
    </g>
    <g id="text_4">
     <!-- 192.168.0.8 - 1.1% -->
     <g transform="translate(98.471875 203.529688)scale(0.1 -0.1)">
      <use xlink:href="#DejaVuSans-31"/>
      <use x="63.623047" xlink:href="#DejaVuSans-39"/>
      <use x="127.246094" xlink:href="#DejaVuSans-32"/>
      <use x="190.869141" xlink:href="#DejaVuSans-2e"/>
      <use x="222.65625" xlink:href="#DejaVuSans-31"/>
      <use x="286.279297" xlink:href="#DejaVuSans-36"/>
      <use x="349.902344" xlink:href="#DejaVuSans-38"/>
      <use x="413.525391" xlink:href="#DejaVuSans-2e"/>
      <use x="445.3125" xlink:href="#DejaVuSans-30"/>
      <use x="508.935547" xlink:href="#DejaVuSans-2e"/>
      <use x="540.722656" xlink:href="#DejaVuSans-38"/>
      <use x="604.345703" xlink:href="#DejaVuSans-20"/>
      <use x="636.132812" xlink:href="#DejaVuSans-2d"/>
      <use x="672.216797" xlink:href="#DejaVuSans-20"/>
      <use x="704.003906" xlink:href="#DejaVuSans-31"/>
      <use x="767.626953" xlink:href="#DejaVuSans-2e"/>
      <use x="799.414062" xlink:href="#DejaVuSans-31"/>
      <use x="863.037109" xlink:href="#DejaVuSans-25"/>
     </g>
    </g>
    <g id="patch_16">
     <path d="M 70.471875 218.207813 
L 90.471875 218.207813 
L 90.471875 211.207813 
L 70.471875 211.207813 
z
" style="fill:#9467bd;"/>
    </g>
    <g id="text_5">
     <!-- 192.168.0.47 - 0.3% -->
     <g transform="translate(98.471875 218.207813)scale(0.1 -0.1)">
      <use xlink:href="#DejaVuSans-31"/>
      <use x="63.623047" xlink:href="#DejaVuSans-39"/>
      <use x="127.246094" xlink:href="#DejaVuSans-32"/>
      <use x="190.869141" xlink:href="#DejaVuSans-2e"/>
      <use x="222.65625" xlink:href="#DejaVuSans-31"/>
      <use x="286.279297" xlink:href="#DejaVuSans-36"/>
      <use x="349.902344" xlink:href="#DejaVuSans-38"/>
      <use x="413.525391" xlink:href="#DejaVuSans-2e"/>
      <use x="445.3125" xlink:href="#DejaVuSans-30"/>
      <use x="508.935547" xlink:href="#DejaVuSans-2e"/>
      <use x="540.722656" xlink:href="#DejaVuSans-34"/>
      <use x="604.345703" xlink:href="#DejaVuSans-37"/>
      <use x="667.96875" xlink:href="#DejaVuSans-20"/>
      <use x="699.755859" xlink:href="#DejaVuSans-2d"/>
      <use x="735.839844" xlink:href="#DejaVuSans-20"/>
      <use x="767.626953" xlink:href="#DejaVuSans-30"/>
      <use x="831.25" xlink:href="#DejaVuSans-2e"/>
      <use x="863.037109" xlink:href="#DejaVuSans-33"/>
      <use x="926.660156" xlink:href="#DejaVuSans-25"/>
     </g>
    </g>
    <g id="patch_17">
     <path d="M 70.471875 232.885938 
L 90.471875 232.885938 
L 90.471875 225.885938 
L 70.471875 225.885938 
z
" style="fill:#8c564b;"/>
    </g>
    <g id="text_6">
     <!-- 0.0.0.0 - 0.3% -->
     <g transform="translate(98.471875 232.885938)scale(0.1 -0.1)">
      <use xlink:href="#DejaVuSans-30"/>
      <use x="63.623047" xlink:href="#DejaVuSans-2e"/>
      <use x="95.410156" xlink:href="#DejaVuSans-30"/>
      <use x="159.033203" xlink:href="#DejaVuSans-2e"/>
      <use x="190.820312" xlink:href="#DejaVuSans-30"/>
      <use x="254.443359" xlink:href="#DejaVuSans-2e"/>
      <use x="286.230469" xlink:href="#DejaVuSans-30"/>
      <use x="349.853516" xlink:href="#DejaVuSans-20"/>
      <use x="381.640625" xlink:href="#DejaVuSans-2d"/>
      <use x="417.724609" xlink:href="#DejaVuSans-20"/>
      <use x="449.511719" xlink:href="#DejaVuSans-30"/>
      <use x="513.134766" xlink:href="#DejaVuSans-2e"/>
      <use x="544.921875" xlink:href="#DejaVuSans-33"/>
      <use x="608.544922" xlink:href="#DejaVuSans-25"/>
     </g>
    </g>
    <g id="patch_18">
     <path d="M 70.471875 247.564063 
L 90.471875 247.564063 
L 90.471875 240.564063 
L 70.471875 240.564063 
z
" style="fill:#e377c2;"/>
    </g>
    <g id="text_7">
     <!-- 192.168.0.221 - 0.3% -->
     <g transform="translate(98.471875 247.564063)scale(0.1 -0.1)">
      <use xlink:href="#DejaVuSans-31"/>
      <use x="63.623047" xlink:href="#DejaVuSans-39"/>
      <use x="127.246094" xlink:href="#DejaVuSans-32"/>
      <use x="190.869141" xlink:href="#DejaVuSans-2e"/>
      <use x="222.65625" xlink:href="#DejaVuSans-31"/>
      <use x="286.279297" xlink:href="#DejaVuSans-36"/>
      <use x="349.902344" xlink:href="#DejaVuSans-38"/>
      <use x="413.525391" xlink:href="#DejaVuSans-2e"/>
      <use x="445.3125" xlink:href="#DejaVuSans-30"/>
      <use x="508.935547" xlink:href="#DejaVuSans-2e"/>
      <use x="540.722656" xlink:href="#DejaVuSans-32"/>
      <use x="604.345703" xlink:href="#DejaVuSans-32"/>
      <use x="667.96875" xlink:href="#DejaVuSans-31"/>
      <use x="731.591797" xlink:href="#DejaVuSans-20"/>
      <use x="763.378906" xlink:href="#DejaVuSans-2d"/>
      <use x="799.462891" xlink:href="#DejaVuSans-20"/>
      <use x="831.25" xlink:href="#DejaVuSans-30"/>
      <use x="894.873047" xlink:href="#DejaVuSans-2e"/>
      <use x="926.660156" xlink:href="#DejaVuSans-33"/>
      <use x="990.283203" xlink:href="#DejaVuSans-25"/>
     </g>
    </g>
    <g id="patch_19">
     <path d="M 70.471875 262.242188 
L 90.471875 262.242188 
L 90.471875 255.242188 
L 70.471875 255.242188 
z
" style="fill:#7f7f7f;"/>
    </g>
    <g id="text_8">
     <!-- 192.168.0.79 - 0.1% -->
     <g transform="translate(98.471875 262.242188)scale(0.1 -0.1)">
      <use xlink:href="#DejaVuSans-31"/>
      <use x="63.623047" xlink:href="#DejaVuSans-39"/>
      <use x="127.246094" xlink:href="#DejaVuSans-32"/>
      <use x="190.869141" xlink:href="#DejaVuSans-2e"/>
      <use x="222.65625" xlink:href="#DejaVuSans-31"/>
      <use x="286.279297" xlink:href="#DejaVuSans-36"/>
      <use x="349.902344" xlink:href="#DejaVuSans-38"/>
      <use x="413.525391" xlink:href="#DejaVuSans-2e"/>
      <use x="445.3125" xlink:href="#DejaVuSans-30"/>
      <use x="508.935547" xlink:href="#DejaVuSans-2e"/>
      <use x="540.722656" xlink:href="#DejaVuSans-37"/>
      <use x="604.345703" xlink:href="#DejaVuSans-39"/>
      <use x="667.96875" xlink:href="#DejaVuSans-20"/>
      <use x="699.755859" xlink:href="#DejaVuSans-2d"/>
      <use x="735.839844" xlink:href="#DejaVuSans-20"/>
      <use x="767.626953" xlink:href="#DejaVuSans-30"/>
      <use x="831.25" xlink:href="#DejaVuSans-2e"/>
      <use x="863.037109" xlink:href="#DejaVuSans-31"/>
      <use x="926.660156" xlink:href="#DejaVuSans-25"/>
     </g>
    </g>
    <g id="patch_20">
     <path d="M 70.471875 276.920313 
L 90.471875 276.920313 
L 90.471875 269.920313 
L 70.471875 269.920313 
z
" style="fill:#bcbd22;"/>
    </g>
    <g id="text_9">
     <!-- 192.168.0.125 - 0.1% -->
     <g transform="translate(98.471875 276.920313)scale(0.1 -0.1)">
      <use xlink:href="#DejaVuSans-31"/>
      <use x="63.623047" xlink:href="#DejaVuSans-39"/>
      <use x="127.246094" xlink:href="#DejaVuSans-32"/>
      <use x="190.869141" xlink:href="#DejaVuSans-2e"/>
      <use x="222.65625" xlink:href="#DejaVuSans-31"/>
      <use x="286.279297" xlink:href="#DejaVuSans-36"/>
      <use x="349.902344" xlink:href="#DejaVuSans-38"/>
      <use x="413.525391" xlink:href="#DejaVuSans-2e"/>
      <use x="445.3125" xlink:href="#DejaVuSans-30"/>
      <use x="508.935547" xlink:href="#DejaVuSans-2e"/>
      <use x="540.722656" xlink:href="#DejaVuSans-31"/>
      <use x="604.345703" xlink:href="#DejaVuSans-32"/>
      <use x="667.96875" xlink:href="#DejaVuSans-35"/>
      <use x="731.591797" xlink:href="#DejaVuSans-20"/>
      <use x="763.378906" xlink:href="#DejaVuSans-2d"/>
      <use x="799.462891" xlink:href="#DejaVuSans-20"/>
      <use x="831.25" xlink:href="#DejaVuSans-30"/>
      <use x="894.873047" xlink:href="#DejaVuSans-2e"/>
      <use x="926.660156" xlink:href="#DejaVuSans-31"/>
      <use x="990.283203" xlink:href="#DejaVuSans-25"/>
     </g>
    </g>
   </g>
  </g>
 </g>
</svg>
