<?xml version="1.0" encoding="utf-8" standalone="no"?>
<!DOCTYPE svg PUBLIC "-//W3C//DTD SVG 1.1//EN"
  "http://www.w3.org/Graphics/SVG/1.1/DTD/svg11.dtd">
<svg height="288pt" version="1.1" viewBox="0 0 432 288" width="432pt" xmlns="http://www.w3.org/2000/svg" xmlns:xlink="http://www.w3.org/1999/xlink">
 <metadata>
  <rdf:RDF xmlns:cc="http://creativecommons.org/ns#" xmlns:dc="http://purl.org/dc/elements/1.1/" xmlns:rdf="http://www.w3.org/1999/02/22-rdf-syntax-ns#">
   <cc:Work>
    <dc:type rdf:resource="http://purl.org/dc/dcmitype/StillImage"/>
    <dc:date>2021-09-19T16:15:30.688429</dc:date>
    <dc:format>image/svg+xml</dc:format>
    <dc:creator>
     <cc:Agent>
      <dc:title>Matplotlib v3.4.3, https://matplotlib.org/</dc:title>
     </cc:Agent>
    </dc:creator>
   </cc:Work>
  </rdf:RDF>
 </metadata>
 <defs>
  <style type="text/css">*{stroke-linecap:butt;stroke-linejoin:round;}</style>
 </defs>
 <g id="figure_1">
  <g id="patch_1">
   <path d="M 0 288 
L 432 288 
L 432 0 
L 0 0 
z
" style="fill:none;"/>
  </g>
  <g id="axes_1">
   <g id="patch_2">
    <path d="M 308.376 143.28 
C 308.376 133.397018 306.691512 123.585943 303.395019 114.268944 
C 300.098527 104.951945 295.237999 96.2646 289.022584 88.580724 
C 282.807168 80.896848 275.327311 74.328255 266.904867 69.15759 
C 258.482423 63.986925 249.239955 60.289429 239.575164 58.224207 
C 229.910372 56.158984 219.963898 55.756086 210.163734 57.03285 
C 200.36357 58.309614 190.852327 61.24746 182.039271 65.719974 
C 173.226215 70.192488 165.239592 76.134587 158.423064 83.290583 
C 151.606536 90.44658 146.059296 98.712341 142.02004 107.732194 
C 137.980784 116.752047 135.50829 126.394736 134.70895 136.24534 
C 133.90961 146.095944 134.795055 156.011118 137.327184 165.564215 
C 139.859314 175.117312 144.001281 184.169316 149.574858 192.330724 
C 155.148435 200.492132 162.072516 207.644179 170.049161 213.479116 
C 178.025805 219.314052 186.938937 223.746969 196.405029 226.587119 
C 205.871121 229.427268 215.752422 230.633322 225.623744 230.153382 
C 235.495066 229.673443 245.212762 227.514496 254.358684 223.769438 
C 263.504606 220.024381 271.945663 214.747712 279.318639 208.166484 
L 221.4 143.28 
L 308.376 143.28 
z
" style="fill:#1f77b4;"/>
   </g>
   <g id="patch_3">
    <path d="M 279.318639 208.166484 
C 284.227418 203.784835 288.623161 198.860268 292.421438 193.487369 
C 296.219715 188.11447 299.396051 182.327863 301.889435 176.238694 
L 221.4 143.28 
L 279.318639 208.166484 
z
" style="fill:#ff7f0e;"/>
   </g>
   <g id="patch_4">
    <path d="M 301.889435 176.238694 
C 304.026016 171.020884 305.650168 165.607656 306.738952 160.075471 
C 307.827736 154.543286 308.376 148.918314 308.376 143.280006 
L 221.4 143.28 
L 301.889435 176.238694 
z
" style="fill:#2ca02c;"/>
   </g>
   <g id="matplotlib.axis_1"/>
   <g id="matplotlib.axis_2"/>
   <g id="legend_1">
    <g id="patch_5">
     <path d="M 74.834375 283 
L 209 283 
Q 211 283 211 281 
L 211 237.965625 
Q 211 235.965625 209 235.965625 
L 74.834375 235.965625 
Q 72.834375 235.965625 72.834375 237.965625 
L 72.834375 281 
Q 72.834375 283 74.834375 283 
z
" style="fill:#ffffff;opacity:0.8;stroke:#cccccc;stroke-linejoin:miter;"/>
    </g>
    <g id="patch_6">
     <path d="M 76.834375 247.564063 
L 96.834375 247.564063 
L 96.834375 240.564063 
L 76.834375 240.564063 
z
" style="fill:#1f77b4;"/>
    </g>
    <g id="text_1">
     <!-- 192.168.0.1 - 86.6% -->
     <g transform="translate(104.834375 247.564063)scale(0.1 -0.1)">
      <defs>
       <path d="M 794 531 
L 1825 531 
L 1825 4091 
L 703 3866 
L 703 4441 
L 1819 4666 
L 2450 4666 
L 2450 531 
L 3481 531 
L 3481 0 
L 794 0 
L 794 531 
z
" id="DejaVuSans-31" transform="scale(0.015625)"/>
       <path d="M 703 97 
L 703 672 
Q 941 559 1184 500 
Q 1428 441 1663 441 
Q 2288 441 2617 861 
Q 2947 1281 2994 2138 
Q 2813 1869 2534 1725 
Q 2256 1581 1919 1581 
Q 1219 1581 811 2004 
Q 403 2428 403 3163 
Q 403 3881 828 4315 
Q 1253 4750 1959 4750 
Q 2769 4750 3195 4129 
Q 3622 3509 3622 2328 
Q 3622 1225 3098 567 
Q 2575 -91 1691 -91 
Q 1453 -91 1209 -44 
Q 966 3 703 97 
z
M 1959 2075 
Q 2384 2075 2632 2365 
Q 2881 2656 2881 3163 
Q 2881 3666 2632 3958 
Q 2384 4250 1959 4250 
Q 1534 4250 1286 3958 
Q 1038 3666 1038 3163 
Q 1038 2656 1286 2365 
Q 1534 2075 1959 2075 
z
" id="DejaVuSans-39" transform="scale(0.015625)"/>
       <path d="M 1228 531 
L 3431 531 
L 3431 0 
L 469 0 
L 469 531 
Q 828 903 1448 1529 
Q 2069 2156 2228 2338 
Q 2531 2678 2651 2914 
Q 2772 3150 2772 3378 
Q 2772 3750 2511 3984 
Q 2250 4219 1831 4219 
Q 1534 4219 1204 4116 
Q 875 4013 500 3803 
L 500 4441 
Q 881 4594 1212 4672 
Q 1544 4750 1819 4750 
Q 2544 4750 2975 4387 
Q 3406 4025 3406 3419 
Q 3406 3131 3298 2873 
Q 3191 2616 2906 2266 
Q 2828 2175 2409 1742 
Q 1991 1309 1228 531 
z
" id="DejaVuSans-32" transform="scale(0.015625)"/>
       <path d="M 684 794 
L 1344 794 
L 1344 0 
L 684 0 
L 684 794 
z
" id="DejaVuSans-2e" transform="scale(0.015625)"/>
       <path d="M 2113 2584 
Q 1688 2584 1439 2293 
Q 1191 2003 1191 1497 
Q 1191 994 1439 701 
Q 1688 409 2113 409 
Q 2538 409 2786 701 
Q 3034 994 3034 1497 
Q 3034 2003 2786 2293 
Q 2538 2584 2113 2584 
z
M 3366 4563 
L 3366 3988 
Q 3128 4100 2886 4159 
Q 2644 4219 2406 4219 
Q 1781 4219 1451 3797 
Q 1122 3375 1075 2522 
Q 1259 2794 1537 2939 
Q 1816 3084 2150 3084 
Q 2853 3084 3261 2657 
Q 3669 2231 3669 1497 
Q 3669 778 3244 343 
Q 2819 -91 2113 -91 
Q 1303 -91 875 529 
Q 447 1150 447 2328 
Q 447 3434 972 4092 
Q 1497 4750 2381 4750 
Q 2619 4750 2861 4703 
Q 3103 4656 3366 4563 
z
" id="DejaVuSans-36" transform="scale(0.015625)"/>
       <path d="M 2034 2216 
Q 1584 2216 1326 1975 
Q 1069 1734 1069 1313 
Q 1069 891 1326 650 
Q 1584 409 2034 409 
Q 2484 409 2743 651 
Q 3003 894 3003 1313 
Q 3003 1734 2745 1975 
Q 2488 2216 2034 2216 
z
M 1403 2484 
Q 997 2584 770 2862 
Q 544 3141 544 3541 
Q 544 4100 942 4425 
Q 1341 4750 2034 4750 
Q 2731 4750 3128 4425 
Q 3525 4100 3525 3541 
Q 3525 3141 3298 2862 
Q 3072 2584 2669 2484 
Q 3125 2378 3379 2068 
Q 3634 1759 3634 1313 
Q 3634 634 3220 271 
Q 2806 -91 2034 -91 
Q 1263 -91 848 271 
Q 434 634 434 1313 
Q 434 1759 690 2068 
Q 947 2378 1403 2484 
z
M 1172 3481 
Q 1172 3119 1398 2916 
Q 1625 2713 2034 2713 
Q 2441 2713 2670 2916 
Q 2900 3119 2900 3481 
Q 2900 3844 2670 4047 
Q 2441 4250 2034 4250 
Q 1625 4250 1398 4047 
Q 1172 3844 1172 3481 
z
" id="DejaVuSans-38" transform="scale(0.015625)"/>
       <path d="M 2034 4250 
Q 1547 4250 1301 3770 
Q 1056 3291 1056 2328 
Q 1056 1369 1301 889 
Q 1547 409 2034 409 
Q 2525 409 2770 889 
Q 3016 1369 3016 2328 
Q 3016 3291 2770 3770 
Q 2525 4250 2034 4250 
z
M 2034 4750 
Q 2819 4750 3233 4129 
Q 3647 3509 3647 2328 
Q 3647 1150 3233 529 
Q 2819 -91 2034 -91 
Q 1250 -91 836 529 
Q 422 1150 422 2328 
Q 422 3509 836 4129 
Q 1250 4750 2034 4750 
z
" id="DejaVuSans-30" transform="scale(0.015625)"/>
       <path id="DejaVuSans-20" transform="scale(0.015625)"/>
       <path d="M 313 2009 
L 1997 2009 
L 1997 1497 
L 313 1497 
L 313 2009 
z
" id="DejaVuSans-2d" transform="scale(0.015625)"/>
       <path d="M 4653 2053 
Q 4381 2053 4226 1822 
Q 4072 1591 4072 1178 
Q 4072 772 4226 539 
Q 4381 306 4653 306 
Q 4919 306 5073 539 
Q 5228 772 5228 1178 
Q 5228 1588 5073 1820 
Q 4919 2053 4653 2053 
z
M 4653 2450 
Q 5147 2450 5437 2106 
Q 5728 1763 5728 1178 
Q 5728 594 5436 251 
Q 5144 -91 4653 -91 
Q 4153 -91 3862 251 
Q 3572 594 3572 1178 
Q 3572 1766 3864 2108 
Q 4156 2450 4653 2450 
z
M 1428 4353 
Q 1159 4353 1004 4120 
Q 850 3888 850 3481 
Q 850 3069 1003 2837 
Q 1156 2606 1428 2606 
Q 1700 2606 1854 2837 
Q 2009 3069 2009 3481 
Q 2009 3884 1853 4118 
Q 1697 4353 1428 4353 
z
M 4250 4750 
L 4750 4750 
L 1831 -91 
L 1331 -91 
L 4250 4750 
z
M 1428 4750 
Q 1922 4750 2215 4408 
Q 2509 4066 2509 3481 
Q 2509 2891 2217 2550 
Q 1925 2209 1428 2209 
Q 931 2209 642 2551 
Q 353 2894 353 3481 
Q 353 4063 643 4406 
Q 934 4750 1428 4750 
z
" id="DejaVuSans-25" transform="scale(0.015625)"/>
      </defs>
      <use xlink:href="#DejaVuSans-31"/>
      <use x="63.623047" xlink:href="#DejaVuSans-39"/>
      <use x="127.246094" xlink:href="#DejaVuSans-32"/>
      <use x="190.869141" xlink:href="#DejaVuSans-2e"/>
      <use x="222.65625" xlink:href="#DejaVuSans-31"/>
      <use x="286.279297" xlink:href="#DejaVuSans-36"/>
      <use x="349.902344" xlink:href="#DejaVuSans-38"/>
      <use x="413.525391" xlink:href="#DejaVuSans-2e"/>
      <use x="445.3125" xlink:href="#DejaVuSans-30"/>
      <use x="508.935547" xlink:href="#DejaVuSans-2e"/>
      <use x="540.722656" xlink:href="#DejaVuSans-31"/>
      <use x="604.345703" xlink:href="#DejaVuSans-20"/>
      <use x="636.132812" xlink:href="#DejaVuSans-2d"/>
      <use x="672.216797" xlink:href="#DejaVuSans-20"/>
      <use x="704.003906" xlink:href="#DejaVuSans-38"/>
      <use x="767.626953" xlink:href="#DejaVuSans-36"/>
      <use x="831.25" xlink:href="#DejaVuSans-2e"/>
      <use x="863.037109" xlink:href="#DejaVuSans-36"/>
      <use x="926.660156" xlink:href="#DejaVuSans-25"/>
     </g>
    </g>
    <g id="patch_7">
     <path d="M 76.834375 262.242188 
L 96.834375 262.242188 
L 96.834375 255.242188 
L 76.834375 255.242188 
z
" style="fill:#ff7f0e;"/>
    </g>
    <g id="text_2">
     <!-- 192.168.0.6 - 7.2% -->
     <g transform="translate(104.834375 262.242188)scale(0.1 -0.1)">
      <defs>
       <path d="M 525 4666 
L 3525 4666 
L 3525 4397 
L 1831 0 
L 1172 0 
L 2766 4134 
L 525 4134 
L 525 4666 
z
" id="DejaVuSans-37" transform="scale(0.015625)"/>
      </defs>
      <use xlink:href="#DejaVuSans-31"/>
      <use x="63.623047" xlink:href="#DejaVuSans-39"/>
      <use x="127.246094" xlink:href="#DejaVuSans-32"/>
      <use x="190.869141" xlink:href="#DejaVuSans-2e"/>
      <use x="222.65625" xlink:href="#DejaVuSans-31"/>
      <use x="286.279297" xlink:href="#DejaVuSans-36"/>
      <use x="349.902344" xlink:href="#DejaVuSans-38"/>
      <use x="413.525391" xlink:href="#DejaVuSans-2e"/>
      <use x="445.3125" xlink:href="#DejaVuSans-30"/>
      <use x="508.935547" xlink:href="#DejaVuSans-2e"/>
      <use x="540.722656" xlink:href="#DejaVuSans-36"/>
      <use x="604.345703" xlink:href="#DejaVuSans-20"/>
      <use x="636.132812" xlink:href="#DejaVuSans-2d"/>
      <use x="672.216797" xlink:href="#DejaVuSans-20"/>
      <use x="704.003906" xlink:href="#DejaVuSans-37"/>
      <use x="767.626953" xlink:href="#DejaVuSans-2e"/>
      <use x="799.414062" xlink:href="#DejaVuSans-32"/>
      <use x="863.037109" xlink:href="#DejaVuSans-25"/>
     </g>
    </g>
    <g id="patch_8">
     <path d="M 76.834375 276.920313 
L 96.834375 276.920313 
L 96.834375 269.920313 
L 76.834375 269.920313 
z
" style="fill:#2ca02c;"/>
    </g>
    <g id="text_3">
     <!-- 192.168.0.11 - 6.2% -->
     <g transform="translate(104.834375 276.920313)scale(0.1 -0.1)">
      <use xlink:href="#DejaVuSans-31"/>
      <use x="63.623047" xlink:href="#DejaVuSans-39"/>
      <use x="127.246094" xlink:href="#DejaVuSans-32"/>
      <use x="190.869141" xlink:href="#DejaVuSans-2e"/>
      <use x="222.65625" xlink:href="#DejaVuSans-31"/>
      <use x="286.279297" xlink:href="#DejaVuSans-36"/>
      <use x="349.902344" xlink:href="#DejaVuSans-38"/>
      <use x="413.525391" xlink:href="#DejaVuSans-2e"/>
      <use x="445.3125" xlink:href="#DejaVuSans-30"/>
      <use x="508.935547" xlink:href="#DejaVuSans-2e"/>
      <use x="540.722656" xlink:href="#DejaVuSans-31"/>
      <use x="604.345703" xlink:href="#DejaVuSans-31"/>
      <use x="667.96875" xlink:href="#DejaVuSans-20"/>
      <use x="699.755859" xlink:href="#DejaVuSans-2d"/>
      <use x="735.839844" xlink:href="#DejaVuSans-20"/>
      <use x="767.626953" xlink:href="#DejaVuSans-36"/>
      <use x="831.25" xlink:href="#DejaVuSans-2e"/>
      <use x="863.037109" xlink:href="#DejaVuSans-32"/>
      <use x="926.660156" xlink:href="#DejaVuSans-25"/>
     </g>
    </g>
   </g>
  </g>
 </g>
</svg>
